<svg width="77" height="82" viewBox="0 0 77 82" fill="none" xmlns="http://www.w3.org/2000/svg">
<g filter="url(#filter0_d_1067_920)">
<path d="M50.3017 33.835L38.5405 59L26.7793 33.835L37.1047 34.9033C38.0264 35.2718 39.0546 35.2718 39.9764 34.9033L50.3017 33.835Z" fill="#5853FC" stroke="white" stroke-width="4.83699" stroke-linecap="round" stroke-linejoin="round"/>
<path d="M18.5387 34.5401C18.5387 23.4935 27.4937 14.5385 38.5403 14.5385C49.5869 14.5385 58.542 23.4935 58.542 34.5401C58.542 45.5867 49.5869 54.5418 38.5403 54.5418C27.4937 54.5418 18.5387 45.5867 18.5387 34.5401Z" fill="white" stroke="white" stroke-width="3.07718"/>
<path d="M38.5 53C36.9238 53 35.3475 52.7511 33.9372 52.4193L32.0291 44.5381C33.2735 44.6211 34.5179 44.4552 35.5964 44.2063C37.7534 43.7085 39.5785 42.63 41.3206 41.5516C43.9753 39.9753 46.5471 38.4821 50.5291 38.8969C50.778 38.8969 51.1099 38.8139 51.2758 38.565C51.4417 38.3161 51.5247 38.0673 51.4417 37.7354L48.0404 24.0471C47.9574 23.7152 47.6256 23.3834 47.2937 23.3834C42.7309 22.8857 39.7444 24.6278 37.0067 26.287C34.435 27.7803 32.0291 29.2735 28.213 28.9417L27.8812 27.4484C27.7982 27.1996 27.7152 27.0336 27.4664 26.8677C27.3004 26.7848 27.0516 26.7018 26.8027 26.7848C26.5538 26.8677 26.3879 26.9507 26.222 27.1996C26.0561 27.4484 26.0561 27.6973 26.0561 27.9462L31.9462 51.8386C24.9776 49.1839 20 42.4641 20 34.5C20 24.296 28.296 16 38.5 16C48.704 16 57 24.296 57 34.5C57 44.704 48.704 53 38.5 53ZM33.1076 36.574L33.8543 39.4776C32.6928 39.7265 32.1121 39.8094 30.8677 39.8094L30.1211 36.9058C31.2825 36.9058 31.9462 36.8229 33.1076 36.574ZM29.2915 33.5874L28.6278 30.7668C29.7063 30.8498 30.7018 30.7668 31.6143 30.5179L32.278 33.2556C31.1995 33.5874 30.5359 33.6704 29.2915 33.5874ZM45.1368 31.3475L44.3901 28.4439C45.3856 28.1951 46.0493 28.1121 47.2108 28.1121L47.9574 31.0157C46.796 31.0157 46.1323 31.0987 45.1368 31.3475ZM48.704 34.3341L49.3677 37.0718C48.3722 37.0718 47.4596 37.1547 46.5471 37.3206L45.8834 34.6659C46.9619 34.3341 47.6256 34.2511 48.704 34.3341ZM44.9708 31.5964L45.7175 34.5C44.5561 34.7489 43.9753 34.9978 42.9798 35.4126C42.9798 35.4126 42.8969 35.4126 42.8969 35.4955L42.1502 32.5919C43.2287 32.0942 43.8094 31.8453 44.9708 31.5964ZM43.3946 38.3991C42.3991 38.8139 41.4865 39.3946 40.6569 39.8924L39.9933 37.1547L40.3251 36.9888C41.1547 36.574 41.7354 36.2422 42.7309 35.8274L43.3946 38.3991ZM41.4865 29.2735C41.4865 29.2735 41.4036 29.2735 41.4036 29.3565L40.574 26.37C41.5695 25.8722 42.4821 25.6233 43.4776 25.3744L44.2242 28.278C43.0628 28.6099 42.4821 28.8587 41.4865 29.2735ZM41.2377 29.5224L41.9843 32.426C40.9888 32.8408 40.4081 33.1726 39.5785 33.5874L39.1637 33.8363L38.417 30.9327L38.8318 30.7668C39.6614 30.2691 40.2421 30.0202 41.2377 29.5224ZM38.7489 34.2511L39.0807 34.0852L39.8274 36.9888L39.4955 37.1547C38.6659 37.5695 38.0852 37.9013 37.0897 38.3161L36.343 35.4126C37.2556 34.9978 37.9193 34.6659 38.7489 34.2511ZM37.5874 41.5516C36.5919 42.0493 35.6794 42.2982 34.6839 42.5471L34.0202 39.6435C35.1816 39.3117 35.8453 39.1457 36.8408 38.648L37.5874 41.5516ZM37.9193 31.0157C37.0897 31.4305 36.509 31.7623 35.5135 32.1771L34.8498 29.5224C35.8453 29.0247 36.7578 28.5269 37.5874 28.0291L38.2511 30.7668L37.9193 31.0157ZM35.2646 32.509C35.2646 32.509 35.3475 32.509 35.3475 32.426L36.0942 35.3296C35.0157 35.8274 34.435 36.0762 33.2735 36.3251L32.5269 33.4215C33.6054 33.1726 34.2691 32.9238 35.2646 32.509Z" fill="#5853FC"/>
</g>
<defs>
<filter id="filter0_d_1067_920" x="0.588385" y="0.691166" width="75.9038" height="81.2418" filterUnits="userSpaceOnUse" color-interpolation-filters="sRGB">
<feFlood flood-opacity="0" result="BackgroundImageFix"/>
<feColorMatrix in="SourceAlpha" type="matrix" values="0 0 0 0 0 0 0 0 0 0 0 0 0 0 0 0 0 0 127 0" result="hardAlpha"/>
<feOffset dy="4.1029"/>
<feGaussianBlur stdDeviation="8.20581"/>
<feComposite in2="hardAlpha" operator="out"/>
<feColorMatrix type="matrix" values="0 0 0 0 0 0 0 0 0 0 0 0 0 0 0 0 0 0 0.2 0"/>
<feBlend mode="normal" in2="BackgroundImageFix" result="effect1_dropShadow_1067_920"/>
<feBlend mode="normal" in="SourceGraphic" in2="effect1_dropShadow_1067_920" result="shape"/>
</filter>
</defs>
</svg>
