<svg width="20" height="20" viewBox="0 0 20 20" fill="none" xmlns="http://www.w3.org/2000/svg">
<path d="M18.0526 3.36835H15.2104" stroke="#5853FC" stroke-width="2" stroke-linecap="round" stroke-linejoin="round"/>
<path d="M11.4209 1.47363V5.26311" stroke="#5853FC" stroke-width="2" stroke-linecap="round" stroke-linejoin="round"/>
<path d="M11.4211 3.36835H1" stroke="#5853FC" stroke-width="2" stroke-linecap="round" stroke-linejoin="round"/>
<path d="M4.78947 9.99994H1" stroke="#5853FC" stroke-opacity="0.34" stroke-width="2" stroke-linecap="round" stroke-linejoin="round"/>
<path fill-rule="evenodd" clip-rule="evenodd" d="M9.5791 8.10547C9.5791 7.55318 9.13139 7.10547 8.5791 7.10547C8.02682 7.10547 7.5791 7.55318 7.5791 8.10547V10V11.8949C7.5791 12.4472 8.02682 12.8949 8.5791 12.8949C9.13139 12.8949 9.5791 12.4472 9.5791 11.8949V11H19.0002C19.5524 11 20.0002 10.5523 20.0002 10C20.0002 9.44772 19.5524 9 19.0002 9H9.5791V8.10547Z" fill="#5853FC" fill-opacity="0.34"/>
<path d="M18.0526 16.6315H15.2104" stroke="#5853FC" stroke-width="2" stroke-linecap="round" stroke-linejoin="round"/>
<path d="M11.4209 14.7368V18.5263" stroke="#5853FC" stroke-width="2" stroke-linecap="round" stroke-linejoin="round"/>
<path d="M11.4211 16.6315H1" stroke="#5853FC" stroke-width="2" stroke-linecap="round" stroke-linejoin="round"/>
</svg>
